<?xml version="1.0" encoding="UTF-8" standalone="no"?>
<svg
   xmlns:dc="http://purl.org/dc/elements/1.1/"
   xmlns:cc="http://creativecommons.org/ns#"
   xmlns:rdf="http://www.w3.org/1999/02/22-rdf-syntax-ns#"
   xmlns:svg="http://www.w3.org/2000/svg"
   xmlns="http://www.w3.org/2000/svg"
   xmlns:sodipodi="http://sodipodi.sourceforge.net/DTD/sodipodi-0.dtd"
   xmlns:inkscape="http://www.inkscape.org/namespaces/inkscape"
   aria-hidden="true"
   focusable="false"
   data-prefix="fas"
   data-icon="folder-open"
   class="svg-inline--fa fa-folder-open fa-w-18"
   role="img"
   viewBox="0 0 576 512"
   version="1.1"
   id="svg4"
   sodipodi:docname="folder-open-solid.svg"
   inkscape:version="1.0.1 (3bc2e813f5, 2020-09-07)">
  <metadata
     id="metadata10">
    <rdf:RDF>
      <cc:Work
         rdf:about="">
        <dc:format>image/svg+xml</dc:format>
        <dc:type
           rdf:resource="http://purl.org/dc/dcmitype/StillImage" />
      </cc:Work>
    </rdf:RDF>
  </metadata>
  <defs
     id="defs8" />
  <sodipodi:namedview
     pagecolor="#ffffff"
     bordercolor="#666666"
     borderopacity="1"
     objecttolerance="10"
     gridtolerance="10"
     guidetolerance="10"
     inkscape:pageopacity="0"
     inkscape:pageshadow="2"
     inkscape:window-width="1920"
     inkscape:window-height="1001"
     id="namedview6"
     showgrid="false"
     inkscape:zoom="0.57314319"
     inkscape:cx="183.3579"
     inkscape:cy="284.76066"
     inkscape:window-x="-9"
     inkscape:window-y="-9"
     inkscape:window-maximized="1"
     inkscape:current-layer="svg4" />
  <g
     id="g861"
     transform="matrix(1,0,0,1.3067322,0,-88.204615)">
    <path
       fill="currentColor"
       d="m 151.99999,244.64094 h 328 V 192.1142 c 0,-29.01008 -21.49,-52.52674 -48,-52.52674 h -160 l -64,-70.035657 h -160 C 21.48999,69.551803 0,93.068463 0,122.07854 V 426.34626 L 69.07699,296.7606 c 17.137,-32.14855 48.912,-52.11966 82.923,-52.11966 z"
       id="path2-9"
       sodipodi:nodetypes="scssccssccs"
       style="fill:#b680dd;fill-opacity:1;stroke-width:1.04609" />
    <path
       fill="currentColor"
       d="m 571.57505,261.30315 -75.03236,158.42696 c -11.882,25.08955 -33.68966,40.51733 -57.27195,40.51687 H 24.901999 c -19.1901073,0 -31.1467575,-25.63951 -21.4776286,-46.05618 L 78.456726,255.76385 c 11.882627,-25.08938 33.690494,-40.51701 57.272984,-40.51687 h 414.36873 c 19.19012,0 31.14676,25.63951 21.47661,46.05617 z"
       id="path2"
       sodipodi:nodetypes="cccscccsc"
       style="fill:#dec1f2;fill-opacity:1;stroke-width:1.14978" />
  </g>
</svg>
